<?xml version="1.0" encoding="UTF-8"?>
<svg version="1.1" viewBox="0 0 2000 2000" width="500" height="500" xmlns="http://www.w3.org/2000/svg">
<path transform="translate(968,804)" d="m0 0h63l45 3 34 4 37 6 28 6 37 10 24 8 34 14 18 8 21 12 24 16 16 13 8 7 7 8 9 10 7 10 9 16 6 16 4 19 1 15-2 16-6 18-8 16-10 14-9 11-15 15-14 11-23 16-16 9-24 12-19 8-24 9-33 10-28 7-39 8-32 5-33 3-30 2h-58l-56-3-30-3-35-6-48-11-40-12-19-7-23-10-23-11-23-14-18-13-13-11-8-7-9-9-10-13-11-18-7-17-3-12-1-7v-28l4-16 8-18 11-17 9-10 7-8 11-11 14-11 15-10 16-10 24-13 29-12 29-11 32-9 28-7 39-7 27-4 44-4zm0 24-31 2-41 4-25 4-30 6-32 8-30 9-21 8-21 9-17 8-24 14-10 7-16 12-10 9-8 8-11 14-8 14-5 11-4 16v17l4 18 8 17 9 12 11 12 10 10 14 11 14 10 16 10 21 11 33 14 36 12 30 8 43 9 28 4 43 4 41 2h32l40-2 42-4 27-4 26-5 44-11 26-8 33-13 29-14 17-10 16-11 16-13 13-12 9-10 9-13 6-12 4-13 2-13-1-15-4-16-8-16-9-13-11-12-4-5-11-9-13-10-17-11-21-12-21-10-28-11-24-8-33-9-37-8-23-4-37-4-45-3z" fill="#171516"/>
</svg>
