<?xml version="1.0" encoding="UTF-8"?>
<svg version="1.1" viewBox="0 0 2000 2000" width="500" height="500" xmlns="http://www.w3.org/2000/svg">
<path transform="translate(634,457)" d="m0 0h729l10 2 7 6 4 7v11l-3 6-8 7-6 2-111 1h-235v528l3 3 87 42 41 20 52 25 39 19 23 11 11 7 6 8 1 10-5 10-8 6-6 2-8-1-50-24-17-8-16-8-51-25-23-11-29-14-41-20-9-4-1 449-4 8-5 4-8 3h-7l-9-4-5-6-2-5-1-6-1-464-29-14-47-23-29-14-64-31-68-33-16-8-5-5-3-5-1-9 4-10 5-5 8-4 9 1 12 5 198 96 26 13v-509h-273l-73-1-8-4-5-5-3-5-1-7 3-10 8-8z"/>
</svg>
