<?xml version="1.0" encoding="UTF-8"?>
<svg version="1.1" viewBox="0 0 2000 2000" width="500" height="500" xmlns="http://www.w3.org/2000/svg">
<path transform="translate(952,639)" d="m0 0h72l25 2 23 4 27 7 26 8 28 11 26 13 27 16 12 8 15 11 13 11 11 9 17 16 16 16 9 11 10 12 13 18 10 16 13 22 12 23 11 25 12 36 7 25 7 36 4 38 1 21v28l-2 28-4 29-5 25-6 23-12 36-11 26-8 17-9 16-3 2-8-1-5-5-1-4 8-17 8-16 10-23 12-36 6-23 6-31 4-34 1-32-2-34-3-27-5-28-8-32-9-27-10-24-12-25-14-24-10-16-12-17-11-14-12-13-7-8-15-15-11-9-9-8-19-14-23-15-21-12-30-14-24-9-27-8-27-6-17-3-34-3h-42l-31 3-28 5-25 6-36 12-27 12-21 11-19 12-16 11-10 8-13 11-13 12-4 4h-2l-2 4-13 13-9 11-11 14-14 21-13 23-13 27-8 21-8 28-6 28-4 36v38l3 32 4 24 8 32 9 26 9 20 8 16 10 18 8 12 14 19 9 11 12 13 17 17 14 11 15 11 19 12 26 14 27 11 21 7 26 6 26 4 13 1h25l28-2 33-5 20-5 21-7 24-10 16-8 18-10 20-14 14-12 11-9 16-16 11-14 13-18 8-13 10-18 9-20 9-27 5-23 3-19 1-10v-39l-4-33-6-26-8-24-10-23-10-18-9-14-12-16-12-13-16-16-11-9-13-10-15-9-21-11-25-10-21-6-27-4-14-1h-32l-27 4-23 6-21 8-27 13-14 9-12 9-14 12-9 9-7 8-10 13-10 16-8 16-8 20-6 20-3 15-2 21v26l3 22 6 25 7 19 8 16 11 18 9 11 9 10 8 8 14 11 13 8 16 8 21 8 21 5 19 2h17l18-2 20-5 19-7 16-8 13-9 11-9 9-8 14-19 11-21 6-20 3-18v-20l-3-20-6-20-8-16-10-14-11-11-14-10-16-8-14-4-5-1h-26l-20 5-12 5-14 10-7 8-8 14-3 9-1 6v18l4 13 6 10 2 4 12 6 9 1 9-3 6-4 1-4-5-7 1-7 4-4 7-1 8 7 5 8v11l-7 11-9 7-8 4-9 2h-11l-11-3-10-6-8-7-7-11-5-11-4-17v-18l4-16 8-17 10-13 7-7 15-10 15-7 14-4 12-2h24l16 3 19 7 16 9 14 11 11 11 11 15 7 12 7 17 5 19 2 13 1 21-2 21-5 19-8 20-7 13-10 14-12 13-10 10-14 11-21 12-16 7-16 5-17 4-26 3h-16l-18-2-20-4-16-5-18-8-17-9-12-9-11-9-14-13-7-8-10-13-13-21-9-19-10-30-5-25-2-21v-15l2-25 4-22 8-26 11-25 8-15 8-12 11-14 12-13 16-16 17-13 20-12 17-9 19-8 20-6 27-6 16-2 13-1h31l24 3 24 5 19 6 17 7 17 8 17 10 16 11 14 11 12 11 5 4 7 8 7 7 9 11 12 17 11 19 8 15 10 24 8 26 5 21 4 31 1 13v31l-3 27-5 24-6 21-6 17-8 19-10 19-12 19-9 12-10 13-14 15-17 17-11 9-13 10-21 14-16 9-26 12-23 9-25 7-26 5-21 2h-68l-23-2-20-4-25-7-25-9-29-14-14-8-21-14-17-13-14-12-24-24-7-8-13-16-12-18-12-20-13-25-12-29-8-25-7-30-4-26-2-24v-49l3-29 6-31 7-25 10-28 12-26 11-20 13-21 12-16 11-14 9-11 9-9 3-4h2l1-3 8-7 8-8 14-11 13-10 24-16 23-13 15-8 29-12 30-10 36-9 26-4z" fill="#171516"/>
</svg>
