<?xml version="1.0" encoding="UTF-8"?>
<svg version="1.1" viewBox="0 0 2000 2000" width="500" height="500" xmlns="http://www.w3.org/2000/svg">
<path transform="translate(634,457)" d="m0 0h729l10 2 7 6 4 7v11l-3 6-8 7-6 2-111 1h-235l-1 488 5 2 23 11 81 39 64 31 23 11 25 12 29 14 8 6 5 8 1 8-4 10-7 6-8 3-8-1-23-11-25-12-68-33-23-11-35-17-25-12-35-17-2-1v81l9 3 24 12 23 11 35 17 25 12 103 50 25 12 17 8 14 8 5 5 4 6v10l-4 7-8 7-5 2h-8l-12-5-45-22-25-12-41-20-29-14-66-32-35-17-6-2-1 364-4 8-5 4-8 3h-7l-9-4-5-6-2-5-1-6v-380l-6-2-47-23-83-40-78-38-16-8-7-6-4-9v-7l4-9 6-5 7-3 9 1 12 5 19 9 16 8 17 8 16 8 103 50 21 10 11 6-1-80-17-9-23-11-52-25-58-28-35-17-23-11-29-14-14-7-6-5-5-10 1-9 4-8 9-6 8-1 12 4 29 14 68 33 50 24 37 18 23 11 22 11-1-468h-273l-73-1-8-4-5-5-3-5-1-7 3-10 8-8z"/>
</svg>
